# xmcd CD database file
#
# Track frame offsets:
#	150
#	14530
#	34176
#	48631
#	64842
#	84602
#	100015
#	117362
#	133338
#	148607
#	162367
#	178858
#	193976
#	210760
#	222871
#	237068
#	251823
#	266158
#	283263
#
# Disc length: 4009 seconds
#
# Revision: 0
# Processed by: cddbd v1.5.2PL0 Copyright (c) Steve Scherf et al.
# Submitted via: CDex 2.10
#
DISCID=290fa713
DTITLE=Various Artist - Hott Counrty 23
DYEAR=1999
DGENRE=Country
TTITLE0=Brooks and Dunn - He`s Got You
TTITLE1=Sammy Kershaw - Love Of My Life
TTITLE2=Deana Carter - Did I Shave My Legs For This
TTITLE3=Shania Twain - Don`t Be Stupid (You Know I Love You)
TTITLE4=Anita Cochran and Stev Wariner - What If I Said
TTITLE5=Neal McCoy - If You Can`t Be Good, Be Good At It
TTITLE6=Lorrie Morgan - One Of Those Nights Tonight
TTITLE7=Wade Hayes - The Day She Left Tulsa
TTITLE8=Daryle Singletary - The Note
TTITLE9=Dixie Chicks - I Can Love You Better
TTITLE10=Kris Tyler - What A Woman Knows
TTITLE11=David Lee Murphy - Just Don`t Wait Around `Til She`s Leavin`
TTITLE12=Collin Raye and Jim Brickman - The Gift
TTITLE13=Chely Wright - Just Another Heartache
TTITLE14=The Lynns - Night Like These
TTITLE15=Rick Tippe - Get Hot Or Go Home 
TTITLE16=Kevin Sharp - There`s Only You
TTITLE17=Jim Brickman and Michelle Wright - Your Love
TTITLE18=Scooter Lee - A Christmas Carol
EXTD=YEAR: 1999
EXTT0=
EXTT1=
EXTT2=
EXTT3=
EXTT4=
EXTT5=
EXTT6=
EXTT7=
EXTT8=
EXTT9=
EXTT10=
EXTT11=
EXTT12=
EXTT13=
EXTT14=
EXTT15=
EXTT16=
EXTT17=
EXTT18=
PLAYORDER=
